<svg width="90" height="39" viewBox="0 0 90 39" fill="none" xmlns="http://www.w3.org/2000/svg">
<path d="M82.8674 18.6177C84.3556 18.507 85.7709 17.8693 86.9344 16.7851C88.098 15.7009 88.9575 14.2191 89.4043 12.5269C89.851 10.8347 89.865 9.00815 89.4444 7.27829C89.0238 5.54843 88.1875 3.99292 87.0413 2.80847L82.1958 9.5887L82.8674 18.6177Z" fill="url(#paint0_linear_6_70)"/>
<path d="M10.4279 17.8392C11.2733 18.267 11.9703 18.9554 12.4574 19.8434C12.9444 20.7315 13.2064 21.7918 13.2202 22.9304C13.2339 24.0691 12.999 25.2509 12.5361 26.3712C12.0733 27.4915 11.3969 28.5158 10.5668 29.3532C9.73675 30.1906 8.77862 30.8154 7.77731 31.1722C6.776 31.529 5.76242 31.6067 4.82635 31.3986C3.89028 31.1905 3.06061 30.7029 2.41083 29.979C1.76106 29.2551 1.31124 28.3172 1.10121 27.2485L17.1583 38.1071L10.4279 17.8392Z" fill="url(#paint1_linear_6_70)"/>
<path d="M9.30819 20.6011V27H5.12432V8.42516H11.6786C16.359 8.42516 18.6992 10.3984 18.6992 14.3448C18.6992 16.21 18.0257 17.7212 16.6785 18.8784C15.34 20.0269 13.5482 20.6011 11.303 20.6011H9.30819ZM9.30819 11.6375V17.4276H10.9532C13.1812 17.4276 14.2952 16.4518 14.2952 14.5002C14.2952 12.5918 13.1812 11.6375 10.9532 11.6375H9.30819Z" fill="url(#paint2_linear_6_70)"/>
<path d="M29.4053 17.4276C28.9131 17.1599 28.3388 17.0261 27.6825 17.0261C26.7931 17.0261 26.0979 17.3542 25.5971 18.0105C25.0962 18.6582 24.8458 19.5433 24.8458 20.6659V27H20.7526V13.736H24.8458V16.1971H24.8976C25.5452 14.4009 26.711 13.5028 28.3949 13.5028C28.8267 13.5028 29.1635 13.5546 29.4053 13.6582V17.4276ZM37.2746 27.3238C35.0639 27.3238 33.3239 26.7064 32.0545 25.4715C30.7937 24.228 30.1633 22.5441 30.1633 20.4198C30.1633 18.2264 30.8196 16.5123 32.1322 15.2774C33.4448 14.0339 35.2194 13.4121 37.4559 13.4121C39.658 13.4121 41.3851 14.0339 42.6372 15.2774C43.8893 16.5123 44.5154 18.1487 44.5154 20.1866C44.5154 22.3887 43.8678 24.1287 42.5724 25.4068C41.2858 26.6848 39.5198 27.3238 37.2746 27.3238ZM37.3782 16.5468C36.411 16.5468 35.6598 16.8793 35.1244 17.5442C34.589 18.2091 34.3213 19.1504 34.3213 20.368C34.3213 22.9154 35.3489 24.1892 37.4041 24.1892C39.3644 24.1892 40.3445 22.8809 40.3445 20.2644C40.3445 17.786 39.3557 16.5468 37.3782 16.5468ZM55.1437 10.4977C54.617 10.2904 54.1118 10.1868 53.6282 10.1868C52.3156 10.1868 51.6593 10.8992 51.6593 12.3241V13.736H54.6904V16.754H51.6593V27H47.5791V16.754H45.3511V13.736H47.5791V12.0909C47.5791 10.5797 48.0713 9.36211 49.0558 8.43812C50.0402 7.51412 51.3787 7.05213 53.0712 7.05213C53.9002 7.05213 54.5911 7.13848 55.1437 7.31119V10.4977ZM58.4794 11.6375C57.7886 11.6375 57.223 11.4346 56.7826 11.0287C56.3422 10.6142 56.122 10.1091 56.122 9.51323C56.122 8.90011 56.3422 8.39926 56.7826 8.01066C57.223 7.62207 57.7886 7.42777 58.4794 7.42777C59.1789 7.42777 59.7445 7.62207 60.1763 8.01066C60.6167 8.39926 60.8369 8.90011 60.8369 9.51323C60.8369 10.135 60.6167 10.6445 60.1763 11.0417C59.7445 11.4389 59.1789 11.6375 58.4794 11.6375ZM60.5001 27H56.4069V13.736H60.5001V27ZM67.7736 27H63.6804V7.363H67.7736V27ZM82.8708 21.5338H74.218C74.3562 23.4595 75.5695 24.4223 77.8579 24.4223C79.3173 24.4223 80.5996 24.0769 81.705 23.3861V26.3394C80.4787 26.9957 78.8855 27.3238 76.9253 27.3238C74.7837 27.3238 73.1213 26.7323 71.9383 25.5492C70.7552 24.3576 70.1637 22.6995 70.1637 20.5752C70.1637 18.3732 70.8027 16.6288 72.0808 15.3422C73.3588 14.0555 74.9305 13.4121 76.7957 13.4121C78.7301 13.4121 80.224 13.9864 81.2775 15.1349C82.3397 16.2834 82.8708 17.8421 82.8708 19.811V21.5338ZM79.0755 19.0209C79.0755 17.1211 78.3069 16.1712 76.7698 16.1712C76.1135 16.1712 75.5436 16.4432 75.06 16.9872C74.5851 17.5312 74.2958 18.2091 74.1921 19.0209H79.0755Z" fill="white"/>
<defs>
<linearGradient id="paint0_linear_6_70" x1="48.4189" y1="4.45194" x2="53.068" y2="40.6881" gradientUnits="userSpaceOnUse">
<stop offset="0.058362" stop-color="#D23EE9"/>
<stop offset="0.447671" stop-color="#F7D332"/>
<stop offset="0.700041" stop-color="#3F1F42"/>
</linearGradient>
<linearGradient id="paint1_linear_6_70" x1="46.9816" y1="51.8704" x2="59.7465" y2="24.3024" gradientUnits="userSpaceOnUse">
<stop offset="0.058362" stop-color="#D23EE9"/>
<stop offset="0.447671" stop-color="#F7D332"/>
<stop offset="0.700041" stop-color="#3F1F42"/>
</linearGradient>
<linearGradient id="paint2_linear_6_70" x1="9.37757" y1="76.7947" x2="170.362" y2="56.0693" gradientUnits="userSpaceOnUse">
<stop offset="0.058362" stop-color="#D23EE9"/>
<stop offset="0.447671" stop-color="#F7D332"/>
<stop offset="0.700041" stop-color="#3F1F42"/>
</linearGradient>
</defs>
</svg>
